<svg width="35" height="35" viewBox="0 0 35 35" fill="none" xmlns="http://www.w3.org/2000/svg">
<path fill-rule="evenodd" clip-rule="evenodd" d="M17.5 35C27.165 35 35 27.165 35 17.5C35 7.83502 27.165 0 17.5 0C7.83502 0 0 7.83502 0 17.5C0 27.165 7.83502 35 17.5 35Z" fill="none"/>
<path fill-rule="evenodd" clip-rule="evenodd" d="M17.7262 8.93471C18.4372 9.80757 19.815 11.5771 21.0537 13.6217C22.6501 16.2565 23.4594 18.4356 23.4594 20.0982C23.4594 23.4739 20.7131 26.2201 17.3375 26.2201C13.9618 26.2201 11.2156 23.4739 11.2156 20.0982C11.2156 18.4367 12.025 16.258 13.6213 13.6228C14.86 11.578 16.2378 9.80788 16.9488 8.93475C17.044 8.81786 17.1868 8.75 17.3375 8.75C17.4882 8.74995 17.631 8.81781 17.7262 8.93471ZM17.0745 24.1031C17.449 24.1031 17.8201 24.0568 18.1776 23.9653C18.2968 23.9348 18.376 23.8299 18.3662 23.7153C18.3564 23.6007 18.2605 23.5087 18.1375 23.496C15.6669 23.2408 13.8038 21.3046 13.8038 18.9924C13.8038 18.8597 13.8118 18.7195 13.8274 18.5761C13.8404 18.4561 13.7554 18.3458 13.6289 18.3186C13.5023 18.2912 13.3739 18.3557 13.3288 18.4687C13.062 19.1377 12.9267 19.7369 12.9267 20.2499C12.9267 22.3745 14.7874 24.1031 17.0745 24.1031Z" fill="#56ADC0"/>
<mask id="path-3-inside-1" fill="white">
<path fill-rule="evenodd" clip-rule="evenodd" d="M17.5 33C26.0604 33 33 26.0604 33 17.5C33 8.93959 26.0604 2 17.5 2C8.93959 2 2 8.93959 2 17.5C2 26.0604 8.93959 33 17.5 33Z"/>
</mask>
<path fill-rule="evenodd" clip-rule="evenodd" d="M17.5 33C26.0604 33 33 26.0604 33 17.5C33 8.93959 26.0604 2 17.5 2C8.93959 2 2 8.93959 2 17.5C2 26.0604 8.93959 33 17.5 33Z" stroke="#56ADC0" stroke-width="2" stroke-dasharray="4" mask="url(#path-3-inside-1)"/>
</svg>
