<svg width="35" height="35" viewBox="0 0 35 35" fill="none" xmlns="http://www.w3.org/2000/svg">
<path fill-rule="evenodd" clip-rule="evenodd" d="M17.5 35C27.165 35 35 27.165 35 17.5C35 7.83502 27.165 0 17.5 0C7.83502 0 0 7.83502 0 17.5C0 27.165 7.83502 35 17.5 35Z" fill="none"/>
<path d="M26.201 15.1124C26.1216 14.8681 25.9104 14.69 25.6563 14.6531L20.4331 13.8941L18.0971 9.16111C17.9834 8.93073 17.7488 8.78497 17.4919 8.78497C17.2351 8.78497 17.0005 8.93073 16.8868 9.16111L14.551 13.8941L9.32776 14.6531C9.07359 14.69 8.86242 14.8681 8.78306 15.1124C8.70366 15.3567 8.76988 15.6248 8.95379 15.8041L12.7333 19.4883L11.8411 24.6904C11.7976 24.9435 11.9017 25.1994 12.1095 25.3505C12.3173 25.5014 12.5929 25.5213 12.8202 25.4018L17.492 22.9457L22.1638 25.4018C22.2625 25.4537 22.3703 25.4793 22.4777 25.4793C22.6176 25.4793 22.7569 25.4359 22.8744 25.3505C23.0822 25.1996 23.1864 24.9436 23.1429 24.6905L22.2507 19.4883L26.0302 15.8042C26.2141 15.6248 26.2804 15.3566 26.201 15.1124Z" fill="#56ADC0"/>
<mask id="path-3-inside-1" fill="white">
<path fill-rule="evenodd" clip-rule="evenodd" d="M17.5 33C26.0604 33 33 26.0604 33 17.5C33 8.93959 26.0604 2 17.5 2C8.93959 2 2 8.93959 2 17.5C2 26.0604 8.93959 33 17.5 33Z"/>
</mask>
<path fill-rule="evenodd" clip-rule="evenodd" d="M17.5 33C26.0604 33 33 26.0604 33 17.5C33 8.93959 26.0604 2 17.5 2C8.93959 2 2 8.93959 2 17.5C2 26.0604 8.93959 33 17.5 33Z" stroke="#56ADC0" stroke-width="2" stroke-dasharray="4" mask="url(#path-3-inside-1)"/>
</svg>
