<svg width="35" height="35" viewBox="0 0 35 35" fill="none" xmlns="http://www.w3.org/2000/svg">
<path fill-rule="evenodd" clip-rule="evenodd" d="M17.5 35C27.165 35 35 27.165 35 17.5C35 7.83502 27.165 0 17.5 0C7.83502 0 0 7.83502 0 17.5C0 27.165 7.83502 35 17.5 35Z" fill="none"/>
<path d="M22.2835 9H12.5142C12.2314 9 12 9.23138 12 9.51418V26.482C12 26.9447 12.5399 27.1761 12.8741 26.8419L17.3988 22.3171L21.9236 26.8419C22.1807 27.099 22.7977 27.0218 22.7977 26.482V9.51418C22.7977 9.23138 22.5663 9 22.2835 9Z" fill="#56ADC0"/>
<mask id="path-3-inside-1" fill="white">
<path fill-rule="evenodd" clip-rule="evenodd" d="M17.5 33C26.0604 33 33 26.0604 33 17.5C33 8.93959 26.0604 2 17.5 2C8.93959 2 2 8.93959 2 17.5C2 26.0604 8.93959 33 17.5 33Z"/>
</mask>
<path fill-rule="evenodd" clip-rule="evenodd" d="M17.5 33C26.0604 33 33 26.0604 33 17.5C33 8.93959 26.0604 2 17.5 2C8.93959 2 2 8.93959 2 17.5C2 26.0604 8.93959 33 17.5 33Z" stroke="#56ADC0" stroke-width="2" stroke-dasharray="4" mask="url(#path-3-inside-1)"/>
</svg>
