<svg width="35" height="35" viewBox="0 0 35 35" fill="none" xmlns="http://www.w3.org/2000/svg">
<path fill-rule="evenodd" clip-rule="evenodd" d="M17.5 35C27.165 35 35 27.165 35 17.5C35 7.83502 27.165 0 17.5 0C7.83502 0 0 7.83502 0 17.5C0 27.165 7.83502 35 17.5 35Z" fill="none"/>
<path d="M25.1362 22.944H24.356C24.1274 22.944 23.9421 23.1293 23.9421 23.3579V23.9419H23.358C23.1294 23.9419 22.9441 24.1272 22.9441 24.3558V25.1361C22.9441 25.3647 23.1294 25.55 23.358 25.55H25.1362C25.3648 25.55 25.5501 25.3647 25.5501 25.1361V23.3579C25.5501 23.1293 25.3648 22.944 25.1362 22.944Z" fill="#56ADC0"/>
<path d="M16.3588 23.9419H13.9246C13.6961 23.9419 13.5107 24.1272 13.5107 24.3558V25.1361C13.5107 25.3647 13.6961 25.55 13.9246 25.55H16.3588C16.5873 25.55 16.7727 25.3647 16.7727 25.1361V24.3558C16.7727 24.1272 16.5873 23.9419 16.3588 23.9419Z" fill="#56ADC0"/>
<path d="M21.0753 23.9419H18.6412C18.4126 23.9419 18.2273 24.1272 18.2273 24.3558V25.1361C18.2273 25.3647 18.4126 25.55 18.6412 25.55H21.0753C21.3038 25.55 21.4892 25.3647 21.4892 25.1361V24.3558C21.4892 24.1272 21.3038 23.9419 21.0753 23.9419Z" fill="#56ADC0"/>
<path d="M11.6421 23.9419H11.058V23.3579C11.058 23.1293 10.8726 22.944 10.6441 22.944H9.86383C9.63529 22.944 9.44995 23.1293 9.44995 23.3579V25.1361C9.44995 25.3647 9.63529 25.55 9.86383 25.55H11.6421C11.8706 25.55 12.056 25.3647 12.056 25.1361V24.3558C12.056 24.1272 11.8706 23.9419 11.6421 23.9419Z" fill="#56ADC0"/>
<path d="M9.86383 21.4892H10.6441C10.8726 21.4892 11.058 21.3039 11.058 21.0754V18.6412C11.058 18.4127 10.8726 18.2274 10.6441 18.2274H9.86383C9.63529 18.2274 9.44995 18.4127 9.44995 18.6412V21.0754C9.44995 21.3039 9.63529 21.4892 9.86383 21.4892Z" fill="#56ADC0"/>
<path d="M9.86383 16.7726H10.6441C10.8726 16.7726 11.058 16.5873 11.058 16.3587V13.9246C11.058 13.696 10.8726 13.5107 10.6441 13.5107H9.86383C9.63529 13.5107 9.44995 13.696 9.44995 13.9246V16.3587C9.44995 16.5873 9.63529 16.7726 9.86383 16.7726Z" fill="#56ADC0"/>
<path d="M11.6421 9.45001H9.86383C9.63529 9.45001 9.44995 9.63531 9.44995 9.86389V11.6422C9.44995 11.8708 9.63529 12.0561 9.86383 12.0561H10.6441C10.8726 12.0561 11.058 11.8708 11.058 11.6422V11.0581H11.6421C11.8706 11.0581 12.056 10.8728 12.056 10.6442V9.86389C12.056 9.63535 11.8706 9.45001 11.6421 9.45001Z" fill="#56ADC0"/>
<path d="M21.0753 9.45001H18.6412C18.4126 9.45001 18.2273 9.63531 18.2273 9.86389V10.6442C18.2273 10.8728 18.4126 11.0581 18.6412 11.0581H21.0753C21.3038 11.0581 21.4892 10.8728 21.4892 10.6442V9.86389C21.4892 9.63535 21.3038 9.45001 21.0753 9.45001Z" fill="#56ADC0"/>
<path d="M13.9246 11.0581H16.3588C16.5873 11.0581 16.7727 10.8728 16.7727 10.6442V9.86389C16.7727 9.63531 16.5873 9.45001 16.3588 9.45001H13.9246C13.6961 9.45001 13.5107 9.63531 13.5107 9.86389V10.6442C13.5107 10.8728 13.6961 11.0581 13.9246 11.0581Z" fill="#56ADC0"/>
<path d="M25.1362 9.45001H23.358C23.1294 9.45001 22.9441 9.63531 22.9441 9.86389V10.6442C22.9441 10.8728 23.1294 11.0581 23.358 11.0581H23.9421V11.6422C23.9421 11.8708 24.1274 12.0561 24.356 12.0561H25.1362C25.3648 12.0561 25.5501 11.8708 25.5501 11.6422V9.86389C25.5501 9.63535 25.3648 9.45001 25.1362 9.45001Z" fill="#56ADC0"/>
<path d="M25.136 18.2274H24.3558C24.1272 18.2274 23.9419 18.4127 23.9419 18.6412V21.0754C23.9419 21.3039 24.1272 21.4892 24.3558 21.4892H25.136C25.3646 21.4892 25.5499 21.3039 25.5499 21.0754V18.6412C25.5499 18.4127 25.3646 18.2274 25.136 18.2274Z" fill="#56ADC0"/>
<path d="M25.136 13.5107H24.3558C24.1272 13.5107 23.9419 13.696 23.9419 13.9246V16.3587C23.9419 16.5873 24.1272 16.7726 24.3558 16.7726H25.136C25.3646 16.7726 25.5499 16.5873 25.5499 16.3587V13.9246C25.5499 13.696 25.3646 13.5107 25.136 13.5107Z" fill="#56ADC0"/>
<mask id="path-14-inside-1" fill="white">
<path fill-rule="evenodd" clip-rule="evenodd" d="M17.5 33C26.0604 33 33 26.0604 33 17.5C33 8.93959 26.0604 2 17.5 2C8.93959 2 2 8.93959 2 17.5C2 26.0604 8.93959 33 17.5 33Z"/>
</mask>
<path fill-rule="evenodd" clip-rule="evenodd" d="M17.5 33C26.0604 33 33 26.0604 33 17.5C33 8.93959 26.0604 2 17.5 2C8.93959 2 2 8.93959 2 17.5C2 26.0604 8.93959 33 17.5 33Z" stroke="#56ADC0" stroke-width="2" stroke-dasharray="4" mask="url(#path-14-inside-1)"/>
</svg>
