<svg width="35" height="35" viewBox="0 0 35 35" fill="none" xmlns="http://www.w3.org/2000/svg">
<path fill-rule="evenodd" clip-rule="evenodd" d="M17.5 35C27.165 35 35 27.165 35 17.5C35 7.83502 27.165 0 17.5 0C7.83502 0 0 7.83502 0 17.5C0 27.165 7.83502 35 17.5 35Z" fill="none"/>
<mask id="path-2-inside-1" fill="white">
<path fill-rule="evenodd" clip-rule="evenodd" d="M17.5 33C26.0604 33 33 26.0604 33 17.5C33 8.93959 26.0604 2 17.5 2C8.93959 2 2 8.93959 2 17.5C2 26.0604 8.93959 33 17.5 33Z"/>
</mask>
<path fill-rule="evenodd" clip-rule="evenodd" d="M17.5 33C26.0604 33 33 26.0604 33 17.5C33 8.93959 26.0604 2 17.5 2C8.93959 2 2 8.93959 2 17.5C2 26.0604 8.93959 33 17.5 33Z" stroke="#56ADC0" stroke-width="2" stroke-dasharray="4" mask="url(#path-2-inside-1)"/>
<path fill-rule="evenodd" clip-rule="evenodd" d="M17.947 12.6C17.581 13.6487 16.5932 14.4 15.4321 14.4C14.271 14.4 13.2832 13.6487 12.9172 12.6H10.9C10.4029 12.6 10 12.1971 10 11.7C10 11.2029 10.4029 10.8 10.9 10.8H12.9172C13.2832 9.75133 14.271 9 15.4321 9C16.5932 9 17.5809 9.75133 17.947 10.8H25.1C25.5971 10.8 26 11.2029 26 11.7C26 12.1971 25.5971 12.6 25.1 12.6H17.947ZM20.5679 26.9333C21.729 26.9333 22.7168 26.1913 23.0828 25.1556H25.1111C25.602 25.1556 26 24.7576 26 24.2667C26 23.7757 25.602 23.3778 25.1111 23.3778H23.0828C22.7168 22.3421 21.729 21.6 20.5679 21.6C19.4068 21.6 18.419 22.3421 18.053 23.3778H10.8889C10.398 23.3778 10 23.7757 10 24.2667C10 24.7576 10.398 25.1556 10.8889 25.1556H18.053C18.419 26.1913 19.4068 26.9333 20.5679 26.9333ZM20.5149 18.8556C20.1489 19.8913 19.1611 20.6333 18 20.6333C16.8389 20.6333 15.8511 19.8913 15.4851 18.8556H10.8889C10.398 18.8556 10 18.4576 10 17.9667C10 17.4757 10.398 17.0778 10.8889 17.0778H15.4851C15.8511 16.0421 16.8389 15.3 18 15.3C19.1611 15.3 20.1489 16.0421 20.5149 17.0778H25.1111C25.602 17.0778 26 17.4757 26 17.9667C26 18.4576 25.602 18.8556 25.1111 18.8556H20.5149Z" fill="#56ADC0"/>
</svg>
