<svg width="35" height="35" viewBox="0 0 35 35" fill="none" xmlns="http://www.w3.org/2000/svg">
<path fill-rule="evenodd" clip-rule="evenodd" d="M17.5 35C27.165 35 35 27.165 35 17.5C35 7.83502 27.165 0 17.5 0C7.83502 0 0 7.83502 0 17.5C0 27.165 7.83502 35 17.5 35Z" fill="none"/>
<path d="M25.5381 10.999C25.535 10.7225 25.31 10.5 25.0334 10.5H9.99659C9.71785 10.5 9.49189 10.726 9.49189 11.0047V13.7806C9.49189 14.0593 9.71785 14.2853 9.99659 14.2853H11.137C11.2904 14.2853 11.4354 14.2156 11.5311 14.0959L12.389 13.0235H16.0022V26.1273C16.0022 26.406 16.2282 26.632 16.5069 26.632H18.5258C18.8044 26.632 19.0305 26.406 19.0305 26.1273V13.0236H22.6398L23.5018 14.0967C23.5976 14.216 23.7425 14.2853 23.8954 14.2853H25.0355C25.1697 14.2853 25.2985 14.2318 25.3932 14.1366C25.488 14.0415 25.5409 13.9125 25.5402 13.7782L25.5381 10.999Z" fill="#56ADC0"/>
<mask id="path-3-inside-1" fill="white">
<path fill-rule="evenodd" clip-rule="evenodd" d="M17.5 33C26.0604 33 33 26.0604 33 17.5C33 8.93959 26.0604 2 17.5 2C8.93959 2 2 8.93959 2 17.5C2 26.0604 8.93959 33 17.5 33Z"/>
</mask>
<path fill-rule="evenodd" clip-rule="evenodd" d="M17.5 33C26.0604 33 33 26.0604 33 17.5C33 8.93959 26.0604 2 17.5 2C8.93959 2 2 8.93959 2 17.5C2 26.0604 8.93959 33 17.5 33Z" stroke="#56ADC0" stroke-width="2" stroke-dasharray="4" mask="url(#path-3-inside-1)"/>
</svg>
