<svg width="35" height="35" viewBox="0 0 35 35" fill="none" xmlns="http://www.w3.org/2000/svg">
<path fill-rule="evenodd" clip-rule="evenodd" d="M17.5 35C27.165 35 35 27.165 35 17.5C35 7.83502 27.165 0 17.5 0C7.83502 0 0 7.83502 0 17.5C0 27.165 7.83502 35 17.5 35Z" fill="none"/>
<path fill-rule="evenodd" clip-rule="evenodd" d="M25.3174 9.03045C25.5974 8.93163 25.9042 9.08121 26.0021 9.36507C26.9714 12.1797 25.225 14.4812 23.5418 15.7821L23.8509 16.2287C24.0206 16.4738 24.0797 16.9055 23.9828 17.1883L23.0936 20.0198C22.9963 20.3024 22.7191 20.6741 22.477 20.846L14.11 26.7754C13.7048 27.0625 13.2487 27.1117 12.9648 26.7013L9.16197 21.2044C8.87829 20.794 8.97693 20.2288 9.38211 19.9415L17.7492 14.012C17.9913 13.8402 18.4314 13.7033 18.7267 13.7079L21.5665 13.695C21.8619 13.6995 22.2428 13.9036 22.4123 14.1486L22.9194 14.8815C24.1713 13.9203 25.8145 12.1265 24.9867 9.72327C24.8891 9.43941 25.0371 9.12927 25.3174 9.03045ZM20.1128 17.4291C20.5668 18.0852 21.4607 18.2449 22.1092 17.7855C22.5767 17.4543 22.7871 16.8921 22.6998 16.3583C22.5063 16.474 22.3207 16.5734 22.1483 16.6556C22.0741 16.6909 21.9962 16.7078 21.9195 16.7078C21.7177 16.7078 21.5244 16.5924 21.4326 16.3953C21.3064 16.1239 21.4211 15.7999 21.6893 15.6717C21.721 15.6566 21.8871 15.5717 22.1294 15.4241C21.6482 15.07 20.9797 15.0434 20.4651 15.4082C19.8162 15.8681 19.6587 16.7724 20.1128 17.4291Z" fill="#56ADC0"/>
<mask id="path-3-inside-1" fill="white">
<path fill-rule="evenodd" clip-rule="evenodd" d="M17.5 33C26.0604 33 33 26.0604 33 17.5C33 8.93959 26.0604 2 17.5 2C8.93959 2 2 8.93959 2 17.5C2 26.0604 8.93959 33 17.5 33Z"/>
</mask>
<path fill-rule="evenodd" clip-rule="evenodd" d="M17.5 33C26.0604 33 33 26.0604 33 17.5C33 8.93959 26.0604 2 17.5 2C8.93959 2 2 8.93959 2 17.5C2 26.0604 8.93959 33 17.5 33Z" stroke="#56ADC0" stroke-width="2" stroke-dasharray="4" mask="url(#path-3-inside-1)"/>
</svg>
